<?xml version="1.0" encoding="utf-8"?><!-- Uploaded to: SVG Repo, www.svgrepo.com, Generator: SVG Repo Mixer Tools -->
<svg width="40px" height="40px" viewBox="0 0 400 400" fill="none" xmlns="http://www.w3.org/2000/svg">
<path d="M97.7584 266.912C92.6853 250.358 95.0759 232.919 92.9403 215.984C91.1224 201.584 87.7749 124.026 99.362 112.544C120.027 92.065 273.627 80.7436 295.286 109.362C311.015 130.141 308.133 170.886 308.133 195.297C308.133 221.663 314.304 262.39 293.679 282.825C262.646 313.578 150.802 310.685 108.998 300.331" stroke="white" stroke-opacity="0.9" stroke-width="16" stroke-linecap="round" stroke-linejoin="round"/>
<path d="M92.3525 178.22C108.076 172.753 152.923 181.568 154.665 177.898C159.057 168.643 170.325 149.34 197.916 144.039C217.288 140.317 246.133 144.039 255.421 162.999C301.023 256.088 204.618 283.492 177.089 268.705C152.735 255.624 154.665 237.915 154.665 224.07" stroke="white" stroke-opacity="0.9" stroke-width="16" stroke-linecap="round" stroke-linejoin="round"/>
<path d="M190.42 185.487C195.609 179.783 206.27 172.158 214.548 174.227C240.637 180.749 240.2 231.513 212.938 236.968C187.338 242.087 168.04 204.722 190.42 193.53" stroke="white" stroke-opacity="0.9" stroke-width="16" stroke-linecap="round" stroke-linejoin="round"/>
<path d="M271.379 177.772C278.12 176.84 299.834 177.637 306.406 176.475" stroke="white" stroke-opacity="0.9" stroke-width="16" stroke-linecap="round" stroke-linejoin="round"/>
<path d="M279.81 139.067C279.81 138.491 279.81 137.919 279.81 137.343" stroke="white" stroke-opacity="0.9" stroke-width="16" stroke-linecap="round" stroke-linejoin="round"/>
</svg>